{
  "accessors": [
    {
      "bufferView": 2,
      "componentType": 5126,
      "count": 589,
      "max": [
        279.64459228515625,
        216.46293640136719,
        256.07296752929688
      ],
      "min": [
        -289.3521728515625,
        -39.156726837158203,
        -18.073001861572266
      ],
      "type": "VEC3"
    },
    {
      "bufferView": 2,
      "byteOffset": 7068,
      "componentType": 5126,
      "count": 589,
      "max": [
        0.92296075820922852,
        0.99979984760284424,
        0.92839372158050537
      ],
      "min": [
        -0.921347975730896,
        -1,
        -0.92839431762695312
      ],
      "type": "VEC3"
    },
    {
      "bufferView": 1,
      "componentType": 5126,
      "count": 589,
      "max": [
        279.64459228515625,
        74.154205322265625
      ],
      "min": [
        -306.67486572265625,
        -95.6082763671875
      ],
      "type": "VEC2"
    },
    {
      "bufferView": 0,
      "componentType": 5125,
      "count": 927,
      "max": [
        588
      ],
      "min": [
        0
      ],
      "type": "SCALAR"
    },
    {
      "bufferView": 2,
      "byteOffset": 14136,
      "componentType": 5126,
      "count": 8879,
      "max": [
        332.9339599609375,
        305.96014404296875,
        312.1419677734375
      ],
      "min": [
        -373.59136962890625,
        -82.354202270507812,
        -74.998649597167969
      ],
      "type": "VEC3"
    },
    {
      "bufferView": 2,
      "byteOffset": 120684,
      "componentType": 5126,
      "count": 8879,
      "max": [
        0.99949246644973755,
        0.99997198581695557,
        1
      ],
      "min": [
        -0.99975728988647461,
        -1,
        -1
      ],
      "type": "VEC3"
    },
    {
      "bufferView": 1,
      "byteOffset": 4712,
      "componentType": 5126,
      "count": 8879,
      "max": [
        279.64459228515625,
        130.32765197753906
      ],
      "min": [
        -306.67486572265625,
        -106.36614227294922
      ],
      "type": "VEC2"
    },
    {
      "bufferView": 0,
      "byteOffset": 3708,
      "componentType": 5125,
      "count": 13737,
      "max": [
        8878
      ],
      "min": [
        0
      ],
      "type": "SCALAR"
    },
    {
      "bufferView": 2,
      "byteOffset": 227232,
      "componentType": 5126,
      "count": 848,
      "max": [
        332.9339599609375,
        305.96014404296875,
        312.1419677734375
      ],
      "min": [
        -315.0712890625,
        -39.156726837158203,
        -74.998649597167969
      ],
      "type": "VEC3"
    },
    {
      "bufferView": 2,
      "byteOffset": 237408,
      "componentType": 5126,
      "count": 848,
      "max": [
        0.97412788867950439,
        0.99997758865356445,
        0.99997562170028687
      ],
      "min": [
        -0.96850079298019409,
        -0.99949169158935547,
        -0.99997562170028687
      ],
      "type": "VEC3"
    },
    {
      "bufferView": 1,
      "byteOffset": 75744,
      "componentType": 5126,
      "count": 848,
      "max": [
        254.40330505371094,
        130.32765197753906
      ],
      "min": [
        -290.827880859375,
        -106.36614227294922
      ],
      "type": "VEC2"
    },
    {
      "bufferView": 0,
      "byteOffset": 58656,
      "componentType": 5125,
      "count": 1302,
      "max": [
        847
      ],
      "min": [
        0
      ],
      "type": "SCALAR"
    },
    {
      "bufferView": 2,
      "byteOffset": 247584,
      "componentType": 5126,
      "count": 253,
      "max": [
        298.726318359375,
        301.6807861328125,
        203.49989318847656
      ],
      "min": [
        -373.2366943359375,
        -76.445335388183594,
        38.959857940673828
      ],
      "type": "VEC3"
    },
    {
      "bufferView": 2,
      "byteOffset": 250620,
      "componentType": 5126,
      "count": 253,
      "max": [
        0.99949169158935547,
        0.88418251276016235,
        0.9639972448348999
      ],
      "min": [
        -0.99949204921722412,
        -1,
        -0.96689778566360474
      ],
      "type": "VEC3"
    },
    {
      "bufferView": 1,
      "byteOffset": 82528,
      "componentType": 5126,
      "count": 253,
      "max": [
        188.94140625,
        40.928089141845703
      ],
      "min": [
        -188.66334533691406,
        -44.136341094970703
      ],
      "type": "VEC2"
    },
    {
      "bufferView": 0,
      "byteOffset": 63864,
      "componentType": 5125,
      "count": 525,
      "max": [
        252
      ],
      "min": [
        0
      ],
      "type": "SCALAR"
    },
    {
      "bufferView": 2,
      "byteOffset": 253656,
      "componentType": 5126,
      "count": 1692,
      "max": [
        294.64944458007812,
        303.401123046875,
        266.64700317382812
      ],
      "min": [
        -261.05389404296875,
        -82.354202270507812,
        -31.017036437988281
      ],
      "type": "VEC3"
    },
    {
      "bufferView": 2,
      "byteOffset": 273960,
      "componentType": 5126,
      "count": 1692,
      "max": [
        0.99599605798721313,
        0.9999622106552124,
        0.98480796813964844
      ],
      "min": [
        -0.98125028610229492,
        -1,
        -0.98480790853500366
      ],
      "type": "VEC3"
    },
    {
      "bufferView": 1,
      "byteOffset": 84552,
      "componentType": 5126,
      "count": 1692,
      "max": [
        258.33859252929688,
        207.46675109863281
      ],
      "min": [
        -261.05389404296875,
        -76.587310791015625
      ],
      "type": "VEC2"
    },
    {
      "bufferView": 0,
      "byteOffset": 65964,
      "componentType": 5125,
      "count": 2586,
      "max": [
        1691
      ],
      "min": [
        0
      ],
      "type": "SCALAR"
    },
    {
      "bufferView": 2,
      "byteOffset": 294264,
      "componentType": 5126,
      "count": 8,
      "max": [
        24.921909332275391,
        283.80764770507812,
        205.94766235351562
      ],
      "min": [
        -2.2180099487304688,
        256.89483642578125,
        27.251693725585938
      ],
      "type": "VEC3"
    },
    {
      "bufferView": 2,
      "byteOffset": 294360,
      "componentType": 5126,
      "count": 8,
      "max": [
        -0.95067453384399414,
        0.03921479731798172,
        0.3077014684677124
      ],
      "min": [
        -0.96345978975296021,
        0.026434959843754768,
        -0.26654565334320068
      ],
      "type": "VEC3"
    },
    {
      "bufferView": 1,
      "byteOffset": 98088,
      "componentType": 5126,
      "count": 8,
      "max": [
        68.447708129882812,
        42.721164703369141
      ],
      "min": [
        -67.215110778808594,
        20.067710876464844
      ],
      "type": "VEC2"
    },
    {
      "bufferView": 0,
      "byteOffset": 76308,
      "componentType": 5125,
      "count": 12,
      "max": [
        7
      ],
      "min": [
        0
      ],
      "type": "SCALAR"
    },
    {
      "bufferView": 2,
      "byteOffset": 294456,
      "componentType": 5126,
      "count": 504,
      "max": [
        564.84423828125,
        304.52084350585938,
        203.7598876953125
      ],
      "min": [
        -180.21565246582031,
        -103.23152923583984,
        39.604534149169922
      ],
      "type": "VEC3"
    },
    {
      "bufferView": 2,
      "byteOffset": 300504,
      "componentType": 5126,
      "count": 504,
      "max": [
        0.89917361736297607,
        0.98430711030960083,
        1
      ],
      "min": [
        -0.92638319730758667,
        -0.99568825960159302,
        -0.99619477987289429
      ],
      "type": "VEC3"
    },
    {
      "bufferView": 1,
      "byteOffset": 98152,
      "componentType": 5126,
      "count": 504,
      "max": [
        0.97937500476837158,
        1
      ],
      "min": [
        0.020624995231628418,
        0
      ],
      "type": "VEC2"
    },
    {
      "bufferView": 0,
      "byteOffset": 76356,
      "componentType": 5125,
      "count": 756,
      "max": [
        503
      ],
      "min": [
        0
      ],
      "type": "SCALAR"
    }
  ],
  "asset": {
    "extras": {
      "author": "Kisielev Mikhail (https://sketchfab.com/kiselevmiki)",
      "license": "CC-BY-4.0 (http://creativecommons.org/licenses/by/4.0/)",
      "source": "https://sketchfab.com/3d-models/the-hitchhikers-guide-to-the-galaxy-06599b29a60c4c709d20b1b119ad6718",
      "title": "The Hitchhiker's Guide to the Galaxy"
    },
    "generator": "Sketchfab-8.6.0",
    "version": "2.0"
  },
  "bufferViews": [
    {
      "buffer": 0,
      "byteLength": 79380,
      "byteOffset": 0,
      "name": "floatBufferViews",
      "target": 34963
    },
    {
      "buffer": 0,
      "byteLength": 102184,
      "byteOffset": 79380,
      "byteStride": 8,
      "name": "floatBufferViews",
      "target": 34962
    },
    {
      "buffer": 0,
      "byteLength": 306552,
      "byteOffset": 181564,
      "byteStride": 12,
      "name": "floatBufferViews",
      "target": 34962
    }
  ],
  "buffers": [
    {
      "byteLength": 488116,
      "uri": "scene.bin"
    }
  ],
  "images": [
    {
      "uri": "textures/Material_343_baseColor.png"
    }
  ],
  "materials": [
    {
      "doubleSided": true,
      "emissiveFactor": [
        0,
        0,
        0
      ],
      "name": "Material_29",
      "pbrMetallicRoughness": {
        "baseColorFactor": [
          0.03709710925778361,
          0.03709710925778361,
          0.03709710925778361,
          1
        ],
        "metallicFactor": 0,
        "roughnessFactor": 0.89297135964975516
      }
    },
    {
      "doubleSided": true,
      "emissiveFactor": [
        0,
        0,
        0
      ],
      "name": "Material_25",
      "pbrMetallicRoughness": {
        "baseColorFactor": [
          1,
          1,
          1,
          1
        ],
        "metallicFactor": 0,
        "roughnessFactor": 0.11413871951219512
      }
    },
    {
      "doubleSided": true,
      "emissiveFactor": [
        0,
        0,
        0
      ],
      "name": "Material_26",
      "pbrMetallicRoughness": {
        "baseColorFactor": [
          0.32582511289594496,
          0.32582511289594496,
          0.32582511289594496,
          1
        ],
        "metallicFactor": 0,
        "roughnessFactor": 1
      }
    },
    {
      "doubleSided": true,
      "emissiveFactor": [
        0.5126945837404322,
        1,
        1
      ],
      "name": "Material_28",
      "pbrMetallicRoughness": {
        "baseColorFactor": [
          0.050980399999999995,
          1,
          0.96470599999999873,
          1
        ],
        "metallicFactor": 0,
        "roughnessFactor": 0.89297135964975516
      }
    },
    {
      "doubleSided": true,
      "emissiveFactor": [
        0,
        0,
        0
      ],
      "name": "Material_27",
      "pbrMetallicRoughness": {
        "baseColorFactor": [
          1,
          0.19413198274092824,
          0,
          1
        ],
        "metallicFactor": 0,
        "roughnessFactor": 0.89297135964975516
      }
    },
    {
      "doubleSided": true,
      "emissiveFactor": [
        0,
        0,
        0
      ],
      "name": "Material_165",
      "pbrMetallicRoughness": {
        "baseColorFactor": [
          0.0039215700000000001,
          0.0039215700000000001,
          0.011764699999999999,
          1
        ],
        "metallicFactor": 0,
        "roughnessFactor": 0
      }
    },
    {
      "alphaMode": "BLEND",
      "doubleSided": true,
      "emissiveFactor": [
        0.51269458374043164,
        1,
        1
      ],
      "name": "Material_343",
      "pbrMetallicRoughness": {
        "baseColorFactor": [
          0.050980399999999995,
          1,
          0.96470599999999873,
          1
        ],
        "baseColorTexture": {
          "index": 0,
          "texCoord": 0
        },
        "metallicFactor": 0,
        "roughnessFactor": 0.89297135964975516
      }
    }
  ],
  "meshes": [
    {
      "name": "Line001_Material #29_0",
      "primitives": [
        {
          "attributes": {
            "NORMAL": 1,
            "POSITION": 0,
            "TEXCOORD_0": 2
          },
          "indices": 3,
          "material": 0,
          "mode": 4
        }
      ]
    },
    {
      "name": "Line001_Material #25_0",
      "primitives": [
        {
          "attributes": {
            "NORMAL": 5,
            "POSITION": 4,
            "TEXCOORD_0": 6
          },
          "indices": 7,
          "material": 1,
          "mode": 4
        }
      ]
    },
    {
      "name": "Line001_Material #26_0",
      "primitives": [
        {
          "attributes": {
            "NORMAL": 9,
            "POSITION": 8,
            "TEXCOORD_0": 10
          },
          "indices": 11,
          "material": 2,
          "mode": 4
        }
      ]
    },
    {
      "name": "Line001_Material #28_0",
      "primitives": [
        {
          "attributes": {
            "NORMAL": 13,
            "POSITION": 12,
            "TEXCOORD_0": 14
          },
          "indices": 15,
          "material": 3,
          "mode": 4
        }
      ]
    },
    {
      "name": "Line001_Material #27_0",
      "primitives": [
        {
          "attributes": {
            "NORMAL": 17,
            "POSITION": 16,
            "TEXCOORD_0": 18
          },
          "indices": 19,
          "material": 4,
          "mode": 4
        }
      ]
    },
    {
      "name": "Line001_Material #165_0",
      "primitives": [
        {
          "attributes": {
            "NORMAL": 21,
            "POSITION": 20,
            "TEXCOORD_0": 22
          },
          "indices": 23,
          "material": 5,
          "mode": 4
        }
      ]
    },
    {
      "name": "Line001_Material #343_0",
      "primitives": [
        {
          "attributes": {
            "NORMAL": 25,
            "POSITION": 24,
            "TEXCOORD_0": 26
          },
          "indices": 27,
          "material": 6,
          "mode": 4
        }
      ]
    }
  ],
  "nodes": [
    {
      "children": [
        1
      ],
      "name": "RootNode (gltf orientation matrix)",
      "rotation": [
        -0.70710678118654746,
        -0,
        -0,
        0.70710678118654757
      ]
    },
    {
      "children": [
        2
      ],
      "name": "RootNode (model correction matrix)"
    },
    {
      "children": [
        3
      ],
      "matrix": [
        1,
        0,
        0,
        0,
        0,
        0,
        1,
        0,
        0,
        -1,
        0,
        0,
        0,
        0,
        0,
        1
      ],
      "name": "6f5c9df31b424ac98c763700b5531ff9.fbx"
    },
    {
      "children": [
        4
      ],
      "name": "RootNode"
    },
    {
      "children": [
        5,
        6,
        7,
        8,
        9,
        10,
        11
      ],
      "matrix": [
        -1.6283785364556991e-07,
        -0.031883344837167343,
        0.99949159692414002,
        0,
        -4.8905841966428998e-08,
        0.99949159692415246,
        0.031883344837159766,
        0,
        -0.99999999999998557,
        -4.368916263833289e-08,
        -1.6431434834984771e-07,
        0,
        -4.2410597416164819e-06,
        -41.652111053466797,
        97.024139404296875,
        1
      ],
      "name": "Line001"
    },
    {
      "mesh": 0,
      "name": "Line001_Material #29_0"
    },
    {
      "mesh": 1,
      "name": "Line001_Material #25_0"
    },
    {
      "mesh": 2,
      "name": "Line001_Material #26_0"
    },
    {
      "mesh": 3,
      "name": "Line001_Material #28_0"
    },
    {
      "mesh": 4,
      "name": "Line001_Material #27_0"
    },
    {
      "mesh": 5,
      "name": "Line001_Material #165_0"
    },
    {
      "mesh": 6,
      "name": "Line001_Material #343_0"
    }
  ],
  "samplers": [
    {
      "magFilter": 9729,
      "minFilter": 9987,
      "wrapS": 10497,
      "wrapT": 10497
    }
  ],
  "scene": 0,
  "scenes": [
    {
      "name": "OSG_Scene",
      "nodes": [
        0
      ]
    }
  ],
  "textures": [
    {
      "sampler": 0,
      "source": 0
    }
  ]
}

