{
  "accessors": [
    {
      "bufferView": 2,
      "componentType": 5126,
      "count": 6398,
      "max": [
        77.783050537109375,
        13.066431999206543,
        62.751705169677734
      ],
      "min": [
        -77.783050537109375,
        -16.722568511962891,
        -86.971885681152344
      ],
      "type": "VEC3"
    },
    {
      "bufferView": 2,
      "byteOffset": 76776,
      "componentType": 5126,
      "count": 6398,
      "max": [
        0.99999290704727173,
        1,
        0.99999386072158813
      ],
      "min": [
        -0.99999290704727173,
        -1,
        -1
      ],
      "type": "VEC3"
    },
    {
      "bufferView": 3,
      "componentType": 5126,
      "count": 6398,
      "max": [
        1,
        0.99999421834945679,
        0.99996960163116455,
        1
      ],
      "min": [
        -0.99958997964859009,
        -0.99997591972351074,
        -0.99999988079071045,
        -1
      ],
      "type": "VEC4"
    },
    {
      "bufferView": 1,
      "componentType": 5126,
      "count": 6398,
      "max": [
        0.99442124366760254,
        0.99799996614456177
      ],
      "min": [
        0.0020000000949949026,
        0.0020000000949949026
      ],
      "type": "VEC2"
    },
    {
      "bufferView": 0,
      "componentType": 5125,
      "count": 29520,
      "max": [
        6397
      ],
      "min": [
        0
      ],
      "type": "SCALAR"
    },
    {
      "bufferView": 2,
      "byteOffset": 153552,
      "componentType": 5126,
      "count": 364,
      "max": [
        1.4048168659210205,
        1.4048168659210205,
        1.4048168659210205
      ],
      "min": [
        -6.3581933975219727,
        -1.4048168659210205,
        -1.4048168659210205
      ],
      "type": "VEC3"
    },
    {
      "bufferView": 2,
      "byteOffset": 157920,
      "componentType": 5126,
      "count": 364,
      "max": [
        1,
        1,
        1
      ],
      "min": [
        -1,
        -1,
        -1
      ],
      "type": "VEC3"
    },
    {
      "bufferView": 3,
      "byteOffset": 102368,
      "componentType": 5126,
      "count": 364,
      "max": [
        1,
        0.90226215124130249,
        0.99988448619842529,
        1
      ],
      "min": [
        -1,
        -0.90232384204864502,
        -0.99350732564926147,
        -1
      ],
      "type": "VEC4"
    },
    {
      "bufferView": 1,
      "byteOffset": 51184,
      "componentType": 5126,
      "count": 364,
      "max": [
        1.1453171968460083,
        1.3962738513946533
      ],
      "min": [
        -0.1453171968460083,
        -0.3962739109992981
      ],
      "type": "VEC2"
    },
    {
      "bufferView": 0,
      "byteOffset": 118080,
      "componentType": 5125,
      "count": 2160,
      "max": [
        363
      ],
      "min": [
        0
      ],
      "type": "SCALAR"
    }
  ],
  "asset": {
    "extras": {
      "author": "Eugene Yi (https://sketchfab.com/ujean9171)",
      "license": "CC-BY-4.0 (http://creativecommons.org/licenses/by/4.0/)",
      "source": "https://sketchfab.com/models/f6ccbf8183424aecb59776ff8e829988",
      "title": "Background Person 3"
    },
    "generator": "Sketchfab-3.20.7",
    "version": "2.0"
  },
  "bufferViews": [
    {
      "buffer": 0,
      "byteLength": 126720,
      "byteOffset": 0,
      "name": "floatBufferViews",
      "target": 34963
    },
    {
      "buffer": 0,
      "byteLength": 54096,
      "byteOffset": 126720,
      "byteStride": 8,
      "name": "floatBufferViews",
      "target": 34962
    },
    {
      "buffer": 0,
      "byteLength": 162288,
      "byteOffset": 180816,
      "byteStride": 12,
      "name": "floatBufferViews",
      "target": 34962
    },
    {
      "buffer": 0,
      "byteLength": 108192,
      "byteOffset": 343104,
      "byteStride": 16,
      "name": "floatBufferViews",
      "target": 34962
    }
  ],
  "buffers": [
    {
      "byteLength": 451296,
      "uri": "scene.bin"
    }
  ],
  "extensionsRequired": [
    "KHR_materials_pbrSpecularGlossiness"
  ],
  "extensionsUsed": [
    "KHR_materials_pbrSpecularGlossiness"
  ],
  "images": [
    {
      "uri": "textures/Material_203_diffuse.png"
    },
    {
      "uri": "textures/Material_203_specularGlossiness.png"
    },
    {
      "uri": "textures/Material_195_diffuse.jpg"
    }
  ],
  "materials": [
    {
      "doubleSided": true,
      "emissiveFactor": [
        0,
        0,
        0
      ],
      "extensions": {
        "KHR_materials_pbrSpecularGlossiness": {
          "diffuseFactor": [
            1,
            1,
            1,
            1
          ],
          "diffuseTexture": {
            "index": 0,
            "texCoord": 0
          },
          "glossinessFactor": 0.40000000000000002,
          "specularFactor": [
            1,
            1,
            1
          ],
          "specularGlossinessTexture": {
            "index": 1,
            "texCoord": 0
          }
        }
      },
      "name": "Material_203"
    },
    {
      "doubleSided": true,
      "emissiveFactor": [
        0,
        0,
        0
      ],
      "extensions": {
        "KHR_materials_pbrSpecularGlossiness": {
          "diffuseFactor": [
            1,
            1,
            1,
            1
          ],
          "diffuseTexture": {
            "index": 2,
            "texCoord": 0
          },
          "glossinessFactor": 0.83974847559999999,
          "specularFactor": [
            0.062690548799999996,
            0.062690548799999996,
            0.062690548799999996
          ]
        }
      },
      "name": "Material_195"
    }
  ],
  "meshes": [
    {
      "name": "Personnale3_low_Material #203_0",
      "primitives": [
        {
          "attributes": {
            "NORMAL": 1,
            "POSITION": 0,
            "TANGENT": 2,
            "TEXCOORD_0": 3
          },
          "indices": 4,
          "material": 0,
          "mode": 4
        }
      ]
    },
    {
      "name": "Eye001_Material #195_0",
      "primitives": [
        {
          "attributes": {
            "NORMAL": 6,
            "POSITION": 5,
            "TANGENT": 7,
            "TEXCOORD_0": 8
          },
          "indices": 9,
          "material": 1,
          "mode": 4
        }
      ]
    }
  ],
  "nodes": [
    {
      "children": [
        1
      ],
      "name": "RootNode (gltf orientation matrix)",
      "rotation": [
        -0.70710678118654746,
        -0,
        -0,
        0.70710678118654757
      ]
    },
    {
      "children": [
        2
      ],
      "name": "RootNode (model correction matrix)"
    },
    {
      "children": [
        3
      ],
      "matrix": [
        1,
        0,
        0,
        0,
        0,
        0,
        1,
        0,
        0,
        -1,
        0,
        0,
        0,
        0,
        0,
        1
      ],
      "name": "4300aba7bf414a078429d9552e8b4c0f.fbx"
    },
    {
      "children": [
        4,
        6
      ],
      "name": "RootNode"
    },
    {
      "children": [
        5
      ],
      "matrix": [
        1,
        0,
        0,
        0,
        0,
        2.2204460492503131e-16,
        -1,
        0,
        0,
        1,
        2.2204460492503131e-16,
        0,
        0,
        17.408447265625,
        7.6094738687970676e-07,
        1
      ],
      "name": "Personnale3_low"
    },
    {
      "mesh": 0,
      "name": "Personnale3_low_Material #203_0"
    },
    {
      "children": [
        7
      ],
      "matrix": [
        1,
        0,
        0,
        0,
        0,
        0.99999999999998668,
        1.6292068494294582e-07,
        0,
        0,
        -1.6292068494294582e-07,
        0.99999999999998668,
        0,
        2.4766881465911865,
        72.051406860351562,
        -0.00399017333984375,
        1
      ],
      "name": "Eye001"
    },
    {
      "mesh": 1,
      "name": "Eye001_Material #195_0"
    }
  ],
  "samplers": [
    {
      "magFilter": 9729,
      "minFilter": 9987,
      "wrapS": 10497,
      "wrapT": 10497
    }
  ],
  "scene": 0,
  "scenes": [
    {
      "name": "OSG_Scene",
      "nodes": [
        0
      ]
    }
  ],
  "textures": [
    {
      "sampler": 0,
      "source": 0
    },
    {
      "sampler": 0,
      "source": 1
    },
    {
      "sampler": 0,
      "source": 2
    }
  ]
}

