{
  "accessors": [
    {
      "bufferView": 1,
      "componentType": 5126,
      "count": 8792,
      "max": [
        106.9429931640625,
        -397.2105712890625,
        45.0518798828125
      ],
      "min": [
        -37.486175537109375,
        -510.9505615234375,
        -151.6949462890625
      ],
      "type": "VEC3"
    },
    {
      "bufferView": 1,
      "byteOffset": 105504,
      "componentType": 5126,
      "count": 8792,
      "max": [
        0.99722683429718018,
        0.99997305870056152,
        0.81047183275222778
      ],
      "min": [
        -0.99901401996612549,
        -0.2049926370382309,
        -0.98725026845932007
      ],
      "type": "VEC3"
    },
    {
      "bufferView": 0,
      "componentType": 5125,
      "count": 50892,
      "max": [
        8791
      ],
      "min": [
        0
      ],
      "type": "SCALAR"
    }
  ],
  "asset": {
    "extras": {
      "author": "IUPUI Center for Digital Scholarship (https://sketchfab.com/iupuicds)",
      "license": "CC-BY-4.0 (http://creativecommons.org/licenses/by/4.0/)",
      "source": "https://sketchfab.com/models/3535321cfdee47f5953408a8078524bf",
      "title": "Garrett W."
    },
    "generator": "Sketchfab-3.37.2",
    "version": "2.0"
  },
  "bufferViews": [
    {
      "buffer": 0,
      "byteLength": 203568,
      "byteOffset": 0,
      "name": "floatBufferViews",
      "target": 34963
    },
    {
      "buffer": 0,
      "byteLength": 211008,
      "byteOffset": 203568,
      "byteStride": 12,
      "name": "floatBufferViews",
      "target": 34962
    }
  ],
  "buffers": [
    {
      "byteLength": 414576,
      "uri": "scene.bin"
    }
  ],
  "materials": [
    {
      "doubleSided": true,
      "name": "material_0",
      "pbrMetallicRoughness": {
        "baseColorFactor": [
          0.18447499449999999,
          0.18447499449999999,
          0.18447499449999999,
          1
        ],
        "metallicFactor": 0,
        "roughnessFactor": 0.5
      }
    }
  ],
  "meshes": [
    {
      "primitives": [
        {
          "attributes": {
            "NORMAL": 1,
            "POSITION": 0
          },
          "indices": 2,
          "material": 0,
          "mode": 4
        }
      ]
    }
  ],
  "nodes": [
    {
      "children": [
        1
      ],
      "name": "RootNode (gltf orientation matrix)",
      "rotation": [
        -0.70710678118654746,
        -0,
        -0,
        0.70710678118654757
      ]
    },
    {
      "children": [
        2
      ],
      "name": "RootNode (model correction matrix)"
    },
    {
      "children": [
        3
      ],
      "name": "GarrettWolf.obj.cleaner.materialmerger.gles"
    },
    {
      "mesh": 0,
      "name": ""
    }
  ],
  "scene": 0,
  "scenes": [
    {
      "name": "OSG_Scene",
      "nodes": [
        0
      ]
    }
  ]
}

