{
  "accessors": [
    {
      "bufferView": 1,
      "componentType": 5126,
      "count": 4145,
      "max": [
        27.334684371948242,
        -19.084089279174805,
        31.928909301757812
      ],
      "min": [
        -74.518135070800781,
        -128.02720642089844,
        -67.768569946289062
      ],
      "type": "VEC3"
    },
    {
      "bufferView": 1,
      "byteOffset": 49740,
      "componentType": 5126,
      "count": 4145,
      "max": [
        0.99890214204788208,
        0.99849677085876465,
        0.9998939037322998
      ],
      "min": [
        -0.99973297119140625,
        -0.99964022636413574,
        -0.99948298931121826
      ],
      "type": "VEC3"
    },
    {
      "bufferView": 2,
      "componentType": 5126,
      "count": 4145,
      "max": [
        1,
        1,
        1,
        1
      ],
      "min": [
        0,
        0,
        0,
        1
      ],
      "type": "VEC4"
    },
    {
      "bufferView": 0,
      "componentType": 5125,
      "count": 24858,
      "max": [
        4144
      ],
      "min": [
        0
      ],
      "type": "SCALAR"
    },
    {
      "bufferView": 1,
      "byteOffset": 99480,
      "componentType": 5126,
      "count": 331,
      "max": [
        34.322658538818359,
        90.093910217285156,
        3.8283679485321045
      ],
      "min": [
        -0.43786200881004333,
        -32.592491149902344,
        -35.330600738525391
      ],
      "type": "VEC3"
    },
    {
      "bufferView": 1,
      "byteOffset": 103452,
      "componentType": 5126,
      "count": 331,
      "max": [
        0.99584835767745972,
        0.96423178911209106,
        0.98833286762237549
      ],
      "min": [
        -0.99697434902191162,
        -0.98217189311981201,
        -0.9926764965057373
      ],
      "type": "VEC3"
    },
    {
      "bufferView": 2,
      "byteOffset": 66320,
      "componentType": 5126,
      "count": 331,
      "max": [
        0,
        0.27843138575553894,
        0.7921568751335144,
        1
      ],
      "min": [
        0,
        0.27450981736183167,
        0.7921568751335144,
        1
      ],
      "type": "VEC4"
    },
    {
      "bufferView": 0,
      "byteOffset": 99432,
      "componentType": 5125,
      "count": 1986,
      "max": [
        330
      ],
      "min": [
        0
      ],
      "type": "SCALAR"
    }
  ],
  "asset": {
    "extras": {
      "author": "smeerws (https://sketchfab.com/smeerws)",
      "license": "CC-BY-4.0 (http://creativecommons.org/licenses/by/4.0/)",
      "source": "https://sketchfab.com/models/adac2626e72f423094c10c309480fec0",
      "title": "Medium | Cat-Balloon"
    },
    "generator": "Sketchfab-3.18.5",
    "version": "2.0"
  },
  "bufferViews": [
    {
      "buffer": 0,
      "byteLength": 107376,
      "byteOffset": 0,
      "name": "floatBufferViews",
      "target": 34963
    },
    {
      "buffer": 0,
      "byteLength": 107424,
      "byteOffset": 107376,
      "byteStride": 12,
      "name": "floatBufferViews",
      "target": 34962
    },
    {
      "buffer": 0,
      "byteLength": 71616,
      "byteOffset": 214800,
      "byteStride": 16,
      "name": "floatBufferViews",
      "target": 34962
    }
  ],
  "buffers": [
    {
      "byteLength": 286416,
      "uri": "scene.bin"
    }
  ],
  "materials": [
    {
      "doubleSided": true,
      "emissiveFactor": [
        0,
        0,
        0
      ],
      "name": "material_0",
      "pbrMetallicRoughness": {
        "baseColorFactor": [
          1,
          1,
          1,
          1
        ],
        "metallicFactor": 0.25181250570000002,
        "roughnessFactor": 0.27056250570000001
      }
    }
  ],
  "meshes": [
    {
      "primitives": [
        {
          "attributes": {
            "COLOR_0": 2,
            "NORMAL": 1,
            "POSITION": 0
          },
          "indices": 3,
          "material": 0,
          "mode": 4
        }
      ]
    },
    {
      "primitives": [
        {
          "attributes": {
            "COLOR_0": 6,
            "NORMAL": 5,
            "POSITION": 4
          },
          "indices": 7,
          "material": 0,
          "mode": 4
        }
      ]
    }
  ],
  "nodes": [
    {
      "children": [
        1
      ],
      "name": "RootNode (gltf orientation matrix)",
      "rotation": [
        -0.70710678118654746,
        -0,
        -0,
        0.70710678118654757
      ]
    },
    {
      "children": [
        2
      ],
      "matrix": [
        0.36064770817756653,
        0.91866022348403931,
        -0.16123472154140472,
        0,
        -0.12988594174385071,
        -0.12171714752912521,
        -0.98402976989746094,
        0,
        -0.9236140251159668,
        0.37583020329475403,
        0.075424037873744965,
        0,
        -31.86402702331543,
        3.9226546287536621,
        -38.472377777099609,
        1
      ],
      "name": "RootNode (model correction matrix)"
    },
    {
      "children": [
        3,
        4
      ],
      "name": "smeerws_2018-02-24_17-31-09cat.obj.cleaner.materialmerger.gles"
    },
    {
      "mesh": 0,
      "name": ""
    },
    {
      "mesh": 1,
      "name": ""
    }
  ],
  "scene": 0,
  "scenes": [
    {
      "name": "OSG_Scene",
      "nodes": [
        0
      ]
    }
  ]
}

